<svg width="800" height="600" xmlns="http://www.w3.org/2000/svg">
 <g>
<image x="65" y="130" width="300" height="300" xlink:href="assets/26.png" />
<line x1="50" y1="490" x2="385" y2="490" style="stroke:rgb(0,0,0);stroke-width:4" />
<title>Weather</title>
  <g font-family="DejaVu Sans" id="weather">
  <!--
   <text font-size="15px" y="415" x="735" text-anchor="start" id="svg_167">mph</text>
   -->
   <text font="DejaVuSans-ExtraLight" font-size="60px" y="48" x="750" text-anchor="end" id="svg_2">Jan 3</text>
   <text font="DejaVuSans-ExtraLight" font-size="60px" y="48" x="420" text-anchor="start" id="svg_2">Thu</text>
   <text font-size="75" y="48" x="50" text-anchor="start" id="svg_276">New York</text>
   <text font-size="40px" y="460" x="220" text-anchor="middle" id="svg_25">Cloudy</text>
   <!--
   <text font-size="40px" y="460" x="220" text-anchor="middle" id="svg_25">Cloudy</text>
   <text font-size="19px" y="454" x="625" text-anchor="middle" id="svg_7">W</text>
   <text font-size="20px" y="550" x="122" text-anchor="end" id="svg_1234">Sunrise:</text>
   <text font-size="20px" y="550" x="310" text-anchor="end" id="svg_1233">Sunset:</text>
   <text font-size="30px" y="550" x="202" text-anchor="end" id="svg_1232">7:20</text>
   <text font-size="30px" y="550" x="390" text-anchor="end" id="svg_1231">4:41</text>
   -->
<!--
   <text font-size="70px" y="455" x="730" text-anchor="end" id="svg_96">18</text>
   <text font-size="70px" y="540" x="730" text-anchor="end" id="svg_963">74</text>
   <text font-size="30px" y="539" x="580" text-anchor="end" id="svg_837">Humidity:</text>
   <text font-size="20px" y="505" x="735" text-anchor="start" id="svg_1627">%</text>
   <text font-size="30px" y="454" x="580" text-anchor="end" id="svg_3">Wind:</text>
 -->

<!--
   <text fill="black" font-size="70px" y="370" x="730" text-anchor="end" id="svg_9">37</text>
   <text fill="black" font-size="60px" y="362" x="729" text-anchor="start" id="svg_10">°</text>
   -->
   <!--
   <text fill="black" font-size="30px" y="369" x="580" text-anchor="end" id="svg_8">Feels Like:</text>
   -->

   <text font-size="45" y="95" x="50" text-anchor="start" id="svg_276"></text>

   <text fill="black" font-size="60px" y="370" x="420" text-anchor="start" id="svg_8">Fri</text>
   <text fill="black" font-size="60px" y="370" x="540" text-anchor="start" id="svg_8">47/35</text>
	 <image x="710" y="290" width="80" height="80" xlink:href="assets/28.png" />

   <text fill="black" font-size="60px" y="440" x="420" text-anchor="start" id="svg_8">Sat</text>
   <text fill="black" font-size="60px" y="440" x="540" text-anchor="start" id="svg_8">45/42</text>
	 <image x="710" y="390" width="80" height="80" xlink:href="assets/47.png" />

   <text fill="black" font-size="60px" y="510" x="420" text-anchor="start" id="svg_8">Sun</text>
   <text fill="black" font-size="60px" y="510" x="540" text-anchor="start" id="svg_8">47/34</text>
	 <image x="710" y="470" width="80" height="80" xlink:href="assets/30.png" />

   <text font-size="150px" y="270" x="480" text-anchor="middle" id="svg_6">43°</text>
   <text font-size="70px" y="270" x="700" text-anchor="middle" id="svg_6">74%</text>
<!-- EXPERIMENTAL -->

	 <image x="600" y="105" width="100" height="80" xlink:href="BAR.jpg" />
	 <image x="700" y="110" width="100" height="80" xlink:href="PRECIP.jpg"/>
	 <image x="50" y="500" width="100" height="100" xlink:href="phase.png"/>
	 <image x="175" y="500" width="100" height="100" xlink:href="assets/12.png" />
   <text fill="black" font-size="60px" y="580" x="300" text-anchor="start" id="svg_8">47/38</text>

<!-- EXPERIMENTAL -->
  </g>
 </g>
</svg>
